PathFileType	4	(X/Y/Z)	/Users/itak/Documents/Research/Walk-IL/dataset/trc/00078_00006.trc
DataRate	CameraRate	NumFrames	NumMarkers	Units	OrigDataRate	OrigDataStartFrame	OrigNumFrames
100.000000	100.000000	4	53	mm	100.000000	458	611
Frame#	Time	RPSI			LPSI			L3			STRN			T10			C7			CLAV			RBAK			LBAK			LSHO			LUPA			LAEL			LAOL			LWTS			LWPS			LFRA			LIFD			LHPS			LHTS			RSHO			RUPA			RAEL			RAOL			RWTS			RWPS			RFRA			RIFD			RHTS			RHPS			RBHD			LFHD			RFHD			LBHD			LHIP			RHIP			RASI			LASI			LKNE			LTHI			LANK			LTIP			LTOE			LMT1			LMT5			LHEE			RKNE			RTHI			RANK			RTIP			RTOE			RMT1			RMT5			RHEE			
		X1	Y1	Z1	X2	Y2	Z2	X3	Y3	Z3	X4	Y4	Z4	X5	Y5	Z5	X6	Y6	Z6	X7	Y7	Z7	X8	Y8	Z8	X9	Y9	Z9	X10	Y10	Z10	X11	Y11	Z11	X12	Y12	Z12	X13	Y13	Z13	X14	Y14	Z14	X15	Y15	Z15	X16	Y16	Z16	X17	Y17	Z17	X18	Y18	Z18	X19	Y19	Z19	X20	Y20	Z20	X21	Y21	Z21	X22	Y22	Z22	X23	Y23	Z23	X24	Y24	Z24	X25	Y25	Z25	X26	Y26	Z26	X27	Y27	Z27	X28	Y28	Z28	X29	Y29	Z29	X30	Y30	Z30	X31	Y31	Z31	X32	Y32	Z32	X33	Y33	Z33	X34	Y34	Z34	X35	Y35	Z35	X36	Y36	Z36	X37	Y37	Z37	X38	Y38	Z38	X39	Y39	Z39	X40	Y40	Z40	X41	Y41	Z41	X42	Y42	Z42	X43	Y43	Z43	X44	Y44	Z44	X45	Y45	Z45	X46	Y46	Z46	X47	Y47	Z47	X48	Y48	Z48	X49	Y49	Z49	X50	Y50	Z50	X51	Y51	Z51	X52	Y52	Z52	X53	Y53	Z53	

459	4.58	448.0421142578125	997.7633666992188	-308.483154296875	276.7391662597656	993.2057495117188	-342.3887023925781	352.0491638183594	1054.731811523438	-325.0057983398438	424.3155212402344	1266.935180664062	-556.8770141601562	337.0464477539062	1185.392578125	-304.4798583984375	354.2213134765625	1455.98291015625	-347.6577758789062	414.5295104980469	1379.18603515625	-521.0239868164062	402.98876953125	1312.604614257812	-271.3271179199219	251.9853210449219	1419.916015625	-359.3492126464844	215.9024200439453	1432.03955078125	-478.4266662597656	135.8674163818359	1307.026733398438	-495.434814453125	120.7708435058594	1096.155517578125	-541.7138671875	182.7179565429688	1071.64208984375	-455.9958190917969	227.2669525146484	879.6277465820312	-646.2433471679688	155.139404296875	853.8724975585938	-609.3027954101562	126.6250762939453	990.9188232421875	-579.4767456054688	264.4101867675781	700.2489624023438	-685.7447509765625	174.3481292724609	782.1832885742188	-651.9071655273438	235.3527069091797	802.0364990234375	-682.9501342773438	538.7853393554688	1419.15576171875	-350.331787109375	591.1605834960938	1350.505981445312	-317.0907592773438	610.765380859375	1092.533203125	-267.7415771484375	533.6431884765625	1065.164916992188	-326.8721008300781	648.4020385742188	835.5535278320312	-399.5160217285156	664.6039428710938	825.5219116210938	-314.0467529296875	626.7847290039062	1013.275268554688	-272.4265441894531	640.5264892578125	645.7442626953125	-398.556396484375	660.9404907226562	735.276123046875	-415.520751953125	686.13525390625	736.107177734375	-342.5771484375	333.2171020507812	1657.218383789062	-422.7186584472656	485.9264526367188	1647.7685546875	-574.738037109375	361.6671447753906	1651.46044921875	-598.8378295898438	468.5470275878906	1643.950317382812	-403.6232604980469	204.2205352783203	937.3317260742188	-467.8644714355469	538.3096923828125	931.8087768554688	-363.7092590332031	545.4859619140625	962.13525390625	-488.2760925292969	286.7006225585938	951.7667236328125	-561.6802368164062	331.9624938964844	473.5231323242188	-497.2831115722656	269.7860717773438	612.2970581054688	-493.8437805175781	261.8015441894531	45.56812286376953	-313.3988037109375	286.3414611816406	241.5971069335938	-405.4721069335938	400.5885314941406	37.1474723815918	-466.4308776855469	406.808837890625	37.56667709350586	-394.3236083984375	296.8353576660156	36.07711029052734	-417.0116882324219	286.322265625	52.16084671020508	-224.4207916259766	586.2903442382812	526.0741577148438	-575.4223022460938	584.4663696289062	781.2067260742188	-484.0282592773438	636.697509765625	47.85798263549805	-671.9004516601562	606.380859375	409.0220336914062	-599.1929321289062	606.8294067382812	133.4870758056641	-863.1900634765625	565.4342651367188	107.9255905151367	-813.4222412109375	658.7608032226562	96.59230804443359	-782.3870849609375	576.6065063476562	31.78848648071289	-634.471923828125	
460	4.59	452.5796203613281	997.0952758789062	-314.7584533691406	281.1508178710938	992.9658813476562	-347.7420654296875	356.7540283203125	1053.94091796875	-330.9323120117188	427.8819885253906	1266.273315429688	-562.8616333007812	341.9580993652344	1184.630737304688	-310.1365356445312	359.0143127441406	1455.251098632812	-353.1607055664062	418.2942199707031	1378.4912109375	-526.9013671875	408.1637573242188	1311.782958984375	-277.2438659667969	256.7195434570312	1419.212524414062	-364.3477172851562	219.9766235351562	1431.428955078125	-483.2110595703125	139.8409423828125	1306.361206054688	-499.7127075195312	124.5629196166992	1095.416015625	-545.4489135742188	187.3142547607422	1071.091796875	-460.0436401367188	228.2342529296875	877.0829467773438	-649.1586303710938	156.3203430175781	852.38525390625	-611.336669921875	129.3003234863281	989.9176025390625	-582.45654296875	263.1206359863281	696.939208984375	-687.3592529296875	174.3010559082031	780.1430053710938	-653.4871215820312	235.2223358154297	799.0304565429688	-685.2223510742188	543.5360107421875	1418.420043945312	-356.8061828613281	596.0799560546875	1349.7392578125	-323.936767578125	615.792236328125	1091.698364257812	-275.0233764648438	538.3562622070312	1064.37451171875	-333.8637084960938	652.8507690429688	834.8232421875	-406.9068603515625	669.4471435546875	824.8030395507812	-321.4779052734375	631.7643432617188	1012.488708496094	-279.7704772949219	645.0272827148438	645.019287109375	-405.7876586914062	664.7593383789062	733.6954956054688	-422.3973999023438	690.8216552734375	735.3833618164062	-350.0105590820312	337.4673767089844	1656.362182617188	-427.2338562011719	489.0311889648438	1647.706909179688	-580.499267578125	364.525146484375	1651.310302734375	-603.5789184570312	473.0079345703125	1643.237548828125	-409.2793884277344	207.6846008300781	937.0802001953125	-472.6038208007812	542.3027954101562	930.785888671875	-370.3280639648438	549.5765380859375	961.83984375	-495.5026550292969	289.73193359375	951.1497192382812	-566.9024047851562	333.3677978515625	472.64453125	-500.1817932128906	272.1089477539062	611.7261962890625	-497.0869445800781	262.2023620605469	45.97334671020508	-313.2777099609375	286.9517211914062	241.5178680419922	-406.7723693847656	400.4539489746094	37.17726135253906	-466.51416015625	406.886474609375	37.59796524047852	-394.4926147460938	296.9481811523438	36.21301651000977	-416.9850158691406	286.8591003417969	53.14889907836914	-224.3677062988281	588.5932006835938	525.4515380859375	-582.6444702148438	587.8255004882812	780.586669921875	-491.2316589355469	637.190185546875	46.72575378417969	-677.9096069335938	608.1900634765625	407.9378051757812	-606.3859252929688	607.3336791992188	131.5271301269531	-869.50048828125	565.9371337890625	106.1690063476562	-819.7135009765625	659.2271728515625	94.99298095703125	-788.4938354492188	576.993896484375	30.77495574951172	-640.4635009765625	
461	4.600000000000001	457.1044616699219	996.3978881835938	-321.1008911132812	285.5839233398438	992.6939086914062	-353.19189453125	361.4527282714844	1053.198364257812	-336.8624572753906	431.5281677246094	1265.629638671875	-568.8863525390625	346.9033508300781	1183.90869140625	-315.8533325195312	363.865234375	1454.556274414062	-358.7235717773438	422.1601257324219	1377.83251953125	-532.833984375	413.3459167480469	1310.994262695312	-283.2204895019531	261.5194091796875	1418.551147460938	-369.4332275390625	224.1375579833984	1430.858032226562	-488.0936279296875	143.8773040771484	1305.766845703125	-504.0794067382812	128.344970703125	1094.747924804688	-549.181396484375	191.8929595947266	1070.623779296875	-464.0748596191406	229.1033477783203	874.5656127929688	-651.9421997070312	157.4454040527344	850.9596557617188	-613.2426147460938	131.9248504638672	988.9940185546875	-585.3848266601562	261.6905822753906	693.6502685546875	-688.6921997070312	174.1290893554688	778.1581420898438	-654.8871459960938	234.9596099853516	796.03955078125	-687.2984619140625	548.3319702148438	1417.71728515625	-363.3037719726562	601.0322875976562	1349.006225585938	-330.7969360351562	620.850830078125	1090.895263671875	-282.3238220214844	543.1292114257812	1063.616577148438	-340.9037170410156	657.3639526367188	834.1546020507812	-414.42041015625	674.3331298828125	824.1213989257812	-329.0362243652344	636.7835693359375	1011.719665527344	-287.1532592773438	649.6022338867188	644.4044189453125	-413.2669982910156	668.9285278320312	732.59326171875	-429.7247314453125	695.5540771484375	734.7286376953125	-357.6241760253906	341.7681884765625	1655.5078125	-431.740234375	492.1582641601562	1647.712036132812	-586.2509155273438	367.4270935058594	1651.21484375	-608.306884765625	477.5170288085938	1642.558227539062	-414.9527282714844	211.2606811523438	936.8435668945312	-477.3883056640625	546.3193359375	929.7705688476562	-376.9998779296875	553.700439453125	961.5452880859375	-502.7533874511719	292.8298645019531	950.5831909179688	-572.1958618164062	334.7822570800781	471.8335876464844	-503.0638427734375	274.3939208984375	611.2145385742188	-500.3374938964844	262.6103820800781	46.45932006835938	-313.1549377441406	287.5977783203125	241.5144348144531	-408.0378723144531	400.3143310546875	37.2091178894043	-466.6277465820312	406.9677124023438	37.63404846191406	-394.6732788085938	297.0707092285156	36.3898811340332	-416.9445190429688	287.4594421386719	54.24700164794922	-224.3111724853516	590.8200073242188	524.7897338867188	-589.9774780273438	591.3096313476562	780.1409301757812	-498.6558227539062	637.4480590820312	45.31717300415039	-682.5009765625	609.8522338867188	406.696044921875	-613.3975830078125	607.542724609375	128.6186065673828	-874.6480102539062	566.1665649414062	103.5788116455078	-824.7990112304688	659.4029541015625	92.74293518066406	-793.336181640625	577.125732421875	29.57191276550293	-644.9953002929688	
462	4.61	461.6512756347656	995.679443359375	-327.5339965820312	290.0653381347656	992.3973388671875	-358.7309875488281	366.160400390625	1052.498779296875	-342.8084411621094	435.2461853027344	1265.006103515625	-574.9627075195312	351.8869323730469	1183.216430664062	-321.6348571777344	368.7682800292969	1453.891723632812	-364.3414611816406	426.1239318847656	1377.207275390625	-538.8207397460938	418.5436401367188	1310.227294921875	-289.2550048828125	266.3864440917969	1417.923095703125	-374.5998840332031	228.3781890869141	1430.320922851562	-493.069091796875	147.9671325683594	1305.235961914062	-508.5306701660156	132.1058502197266	1094.142944335938	-552.9168090820312	196.4477386474609	1070.233642578125	-468.0886535644531	229.8877410888672	872.0896606445312	-654.6032104492188	158.4818572998047	849.6080322265625	-615.0396118164062	134.50146484375	988.1427612304688	-588.2679443359375	260.156494140625	690.4053344726562	-689.7689819335938	173.8581848144531	776.244873046875	-656.1256103515625	234.5929870605469	793.0897216796875	-689.197265625	553.1774291992188	1417.0380859375	-369.8303527832031	606.0201416015625	1348.29443359375	-337.6775817871094	625.9530029296875	1090.11865234375	-289.6249389648438	547.9699096679688	1062.88818359375	-347.9826965332031	661.9328002929688	833.5367431640625	-422.0515747070312	679.255615234375	823.4584350585938	-336.7238464355469	641.8527221679688	1010.958618164062	-294.5651245117188	654.2008056640625	643.8350219726562	-420.9717712402344	673.3892822265625	731.8958740234375	-437.450439453125	700.3328247070312	734.1353149414062	-365.4325866699219	346.1286926269531	1654.658081054688	-436.2431945800781	495.3061828613281	1647.769897460938	-591.9921875	370.3778076171875	1651.1669921875	-613.0274047851562	482.0693359375	1641.90576171875	-420.6434020996094	214.9872741699219	936.6103515625	-482.2149963378906	550.4078369140625	928.7940063476562	-383.7840576171875	557.784423828125	961.1570434570312	-509.9996337890625	295.9836120605469	950.0548095703125	-577.564453125	336.2284851074219	471.0843811035156	-505.9501342773438	276.6539001464844	610.7653198242188	-503.6216735839844	263.0525817871094	47.02401351928711	-313.0385131835938	288.3128662109375	241.5857086181641	-409.2790222167969	400.1854553222656	37.23710632324219	-466.7640991210938	407.0462341308594	37.67438507080078	-394.861328125	297.1877136230469	36.60466003417969	-416.8930969238281	288.107666015625	55.45541000366211	-224.2619018554688	592.9284057617188	524.0272216796875	-597.3232421875	594.8794555664062	779.797607421875	-506.2657775878906	637.51611328125	43.71962738037109	-685.8651123046875	611.3619384765625	405.2861022949219	-620.1868896484375	607.4822387695312	124.8744506835938	-878.80419921875	566.1466674804688	100.2590789794922	-828.8436279296875	659.3118896484375	89.94548797607422	-797.098388671875	577.0642700195312	28.26442909240723	-648.2569580078125	
